<svg width="960" height="720" viewBox="0 0 960 720" fill="none" xmlns="http://www.w3.org/2000/svg">
  <defs>
    <linearGradient id="bg" x1="50" y1="30" x2="860" y2="650" gradientUnits="userSpaceOnUse">
      <stop stop-color="#12364A"/>
      <stop offset="1" stop-color="#1E5268"/>
    </linearGradient>
    <linearGradient id="card" x1="140" y1="120" x2="780" y2="620" gradientUnits="userSpaceOnUse">
      <stop stop-color="#F7FBFF" stop-opacity="0.95"/>
      <stop offset="1" stop-color="#E7F1FF" stop-opacity="0.95"/>
    </linearGradient>
    <linearGradient id="accent" x1="500" y1="80" x2="700" y2="290" gradientUnits="userSpaceOnUse">
      <stop stop-color="#34C8B4"/>
      <stop offset="1" stop-color="#289EED"/>
    </linearGradient>
    <filter id="soft" x="0" y="0" width="960" height="720" filterUnits="userSpaceOnUse" color-interpolation-filters="sRGB">
      <feGaussianBlur stdDeviation="28"/>
    </filter>
  </defs>

  <rect width="960" height="720" rx="28" fill="url(#bg)"/>

  <g filter="url(#soft)" opacity="0.55">
    <circle cx="130" cy="120" r="86" fill="#39D7BB"/>
    <circle cx="860" cy="140" r="110" fill="#4FA9FF"/>
    <circle cx="760" cy="600" r="120" fill="#FFC06A"/>
  </g>

  <rect x="120" y="100" width="720" height="520" rx="24" fill="url(#card)"/>
  <rect x="150" y="132" width="660" height="58" rx="14" fill="#0F3042"/>

  <circle cx="185" cy="161" r="8" fill="#39D7BB"/>
  <circle cx="211" cy="161" r="8" fill="#58B3FF"/>
  <circle cx="237" cy="161" r="8" fill="#F8B15A"/>

  <rect x="172" y="225" width="300" height="180" rx="18" fill="#FFFFFF"/>
  <rect x="192" y="250" width="140" height="14" rx="7" fill="#174157"/>
  <rect x="192" y="278" width="250" height="10" rx="5" fill="#88A6BA"/>
  <rect x="192" y="296" width="220" height="10" rx="5" fill="#9AB4C5"/>
  <rect x="192" y="324" width="190" height="12" rx="6" fill="#1E5268" opacity="0.86"/>
  <rect x="192" y="348" width="110" height="34" rx="11" fill="url(#accent)"/>

  <rect x="500" y="225" width="280" height="80" rx="16" fill="#FFFFFF"/>
  <rect x="520" y="245" width="116" height="12" rx="6" fill="#184459"/>
  <rect x="520" y="266" width="190" height="10" rx="5" fill="#8EACBF"/>
  <circle cx="742" cy="265" r="18" fill="#2CBFA8"/>

  <rect x="500" y="320" width="280" height="80" rx="16" fill="#FFFFFF"/>
  <rect x="520" y="340" width="124" height="12" rx="6" fill="#184459"/>
  <rect x="520" y="361" width="200" height="10" rx="5" fill="#8EACBF"/>
  <circle cx="742" cy="360" r="18" fill="#F4B05E"/>

  <rect x="500" y="415" width="280" height="160" rx="16" fill="#FFFFFF"/>
  <rect x="520" y="437" width="110" height="12" rx="6" fill="#184459"/>
  <rect x="520" y="460" width="220" height="10" rx="5" fill="#9AB4C5"/>
  <rect x="520" y="478" width="200" height="10" rx="5" fill="#A9C0CF"/>
  <rect x="520" y="506" width="200" height="48" rx="12" fill="#EEF6FF"/>
  <path d="M545 537L575 521L609 543L646 512L691 540" stroke="#2A95E8" stroke-width="7" stroke-linecap="round" stroke-linejoin="round"/>
</svg>
